<?xml version="1.0" encoding="UTF-8" standalone="no"?>
<!DOCTYPE svg PUBLIC "-//W3C//DTD SVG 1.1//EN"
 "http://www.w3.org/Graphics/SVG/1.1/DTD/svg11.dtd">
<!-- Generated by graphviz version 2.36.0 (20140111.2315)
 -->
<!-- Title: SADFace Pages: 1 -->
<svg width="352pt" height="402pt"
 viewBox="0.00 0.00 352.00 402.00" xmlns="http://www.w3.org/2000/svg" xmlns:xlink="http://www.w3.org/1999/xlink">
<g id="graph0" class="graph" transform="scale(1 1) rotate(0) translate(4 398)">
<title>SADFace</title>
<polygon fill="white" stroke="none" points="-4,4 -4,-398 348,-398 348,4 -4,4"/>
<!-- 9bfb7cdc&#45;116f&#45;47f5&#45;b85d&#45;ff7c5d329f45 -->
<g id="node1" class="node"><title>9bfb7cdc&#45;116f&#45;47f5&#45;b85d&#45;ff7c5d329f45</title>
<path fill="none" stroke="black" d="M240.241,-64C240.241,-64 93.7589,-64 93.7589,-64 87.7589,-64 81.7589,-58 81.7589,-52 81.7589,-52 81.7589,-12 81.7589,-12 81.7589,-6 87.7589,-0 93.7589,-0 93.7589,-0 240.241,-0 240.241,-0 246.241,-0 252.241,-6 252.241,-12 252.241,-12 252.241,-52 252.241,-52 252.241,-58 246.241,-64 240.241,-64"/>
<text text-anchor="middle" x="167" y="-48.8" font-family="Times,serif" font-size="14.00">The &#39;Hang Back&#39; campaign</text>
<text text-anchor="middle" x="167" y="-34.8" font-family="Times,serif" font-size="14.00">video should not have</text>
<text text-anchor="middle" x="167" y="-20.8" font-family="Times,serif" font-size="14.00">been published, and</text>
<text text-anchor="middle" x="167" y="-6.8" font-family="Times,serif" font-size="14.00">should be withdrawn.</text>
</g>
<!-- 49a786ce&#45;9066&#45;4230&#45;8e18&#45;42086882a160 -->
<g id="node2" class="node"><title>49a786ce&#45;9066&#45;4230&#45;8e18&#45;42086882a160</title>
<polygon fill="lightgrey" stroke="black" points="167,-136 115.779,-118 167,-100 218.221,-118 167,-136"/>
<text text-anchor="middle" x="167" y="-113.8" font-family="Times,serif" font-size="14.00">support</text>
</g>
<!-- 49a786ce&#45;9066&#45;4230&#45;8e18&#45;42086882a160&#45;&gt;9bfb7cdc&#45;116f&#45;47f5&#45;b85d&#45;ff7c5d329f45 -->
<g id="edge1" class="edge"><title>49a786ce&#45;9066&#45;4230&#45;8e18&#45;42086882a160&#45;&gt;9bfb7cdc&#45;116f&#45;47f5&#45;b85d&#45;ff7c5d329f45</title>
<path fill="none" stroke="black" d="M167,-99.5951C167,-92.2728 167,-83.4104 167,-74.5733"/>
<polygon fill="black" stroke="black" points="170.5,-74.3046 167,-64.3046 163.5,-74.3047 170.5,-74.3046"/>
</g>
<!-- 30c9c0ac&#45;ddef&#45;44e7&#45;897d&#45;52ffee97b837 -->
<g id="node3" class="node"><title>30c9c0ac&#45;ddef&#45;44e7&#45;897d&#45;52ffee97b837</title>
<path fill="none" stroke="black" d="M140.217,-222C140.217,-222 11.7827,-222 11.7827,-222 5.78272,-222 -0.217284,-216 -0.217284,-210 -0.217284,-210 -0.217284,-184 -0.217284,-184 -0.217284,-178 5.78272,-172 11.7827,-172 11.7827,-172 140.217,-172 140.217,-172 146.217,-172 152.217,-178 152.217,-184 152.217,-184 152.217,-210 152.217,-210 152.217,-216 146.217,-222 140.217,-222"/>
<text text-anchor="middle" x="76" y="-206.8" font-family="Times,serif" font-size="14.00">The &#39;Hang Back&#39; advert</text>
<text text-anchor="middle" x="76" y="-192.8" font-family="Times,serif" font-size="14.00">does not clearly express</text>
<text text-anchor="middle" x="76" y="-178.8" font-family="Times,serif" font-size="14.00">the intended message</text>
</g>
<!-- 30c9c0ac&#45;ddef&#45;44e7&#45;897d&#45;52ffee97b837&#45;&gt;49a786ce&#45;9066&#45;4230&#45;8e18&#45;42086882a160 -->
<g id="edge2" class="edge"><title>30c9c0ac&#45;ddef&#45;44e7&#45;897d&#45;52ffee97b837&#45;&gt;49a786ce&#45;9066&#45;4230&#45;8e18&#45;42086882a160</title>
<path fill="none" stroke="black" d="M104.793,-171.637C117.654,-160.754 132.584,-148.121 144.593,-137.96"/>
<polygon fill="black" stroke="black" points="147.006,-140.503 152.379,-131.371 142.485,-135.159 147.006,-140.503"/>
</g>
<!-- 02b4009b&#45;1a12&#45;4d53&#45;ab3a&#45;efabe6c44694 -->
<g id="node4" class="node"><title>02b4009b&#45;1a12&#45;4d53&#45;ab3a&#45;efabe6c44694</title>
<path fill="none" stroke="black" d="M332.594,-222C332.594,-222 183.406,-222 183.406,-222 177.406,-222 171.406,-216 171.406,-210 171.406,-210 171.406,-184 171.406,-184 171.406,-178 177.406,-172 183.406,-172 183.406,-172 332.594,-172 332.594,-172 338.594,-172 344.594,-178 344.594,-184 344.594,-184 344.594,-210 344.594,-210 344.594,-216 338.594,-222 332.594,-222"/>
<text text-anchor="middle" x="258" y="-206.8" font-family="Times,serif" font-size="14.00">The &#39;Hang Back&#39; campaign</text>
<text text-anchor="middle" x="258" y="-192.8" font-family="Times,serif" font-size="14.00">was the wrong campaign to</text>
<text text-anchor="middle" x="258" y="-178.8" font-family="Times,serif" font-size="14.00">run</text>
</g>
<!-- 02b4009b&#45;1a12&#45;4d53&#45;ab3a&#45;efabe6c44694&#45;&gt;49a786ce&#45;9066&#45;4230&#45;8e18&#45;42086882a160 -->
<g id="edge3" class="edge"><title>02b4009b&#45;1a12&#45;4d53&#45;ab3a&#45;efabe6c44694&#45;&gt;49a786ce&#45;9066&#45;4230&#45;8e18&#45;42086882a160</title>
<path fill="none" stroke="black" d="M229.207,-171.637C216.346,-160.754 201.416,-148.121 189.407,-137.96"/>
<polygon fill="black" stroke="black" points="191.515,-135.159 181.621,-131.371 186.994,-140.503 191.515,-135.159"/>
</g>
<!-- 5760a93a&#45;55e7&#45;447c&#45;a245&#45;7f8d7e7e4434 -->
<g id="node5" class="node"><title>5760a93a&#45;55e7&#45;447c&#45;a245&#45;7f8d7e7e4434</title>
<polygon fill="lightgrey" stroke="black" points="258,-294 206.788,-276 258,-258 309.212,-276 258,-294"/>
<text text-anchor="middle" x="258" y="-271.8" font-family="Times,serif" font-size="14.00">conflict</text>
</g>
<!-- 5760a93a&#45;55e7&#45;447c&#45;a245&#45;7f8d7e7e4434&#45;&gt;02b4009b&#45;1a12&#45;4d53&#45;ab3a&#45;efabe6c44694 -->
<g id="edge4" class="edge"><title>5760a93a&#45;55e7&#45;447c&#45;a245&#45;7f8d7e7e4434&#45;&gt;02b4009b&#45;1a12&#45;4d53&#45;ab3a&#45;efabe6c44694</title>
<path fill="none" stroke="black" d="M258,-257.911C258,-250.332 258,-241.13 258,-232.235"/>
<polygon fill="black" stroke="black" points="261.5,-232.05 258,-222.05 254.5,-232.05 261.5,-232.05"/>
</g>
<!-- fbaa9b79&#45;0965&#45;45a1&#45;9fd4&#45;60701c2102cf -->
<g id="node6" class="node"><title>fbaa9b79&#45;0965&#45;45a1&#45;9fd4&#45;60701c2102cf</title>
<path fill="none" stroke="black" d="M323.093,-394C323.093,-394 192.907,-394 192.907,-394 186.907,-394 180.907,-388 180.907,-382 180.907,-382 180.907,-342 180.907,-342 180.907,-336 186.907,-330 192.907,-330 192.907,-330 323.093,-330 323.093,-330 329.093,-330 335.093,-336 335.093,-342 335.093,-342 335.093,-382 335.093,-382 335.093,-388 329.093,-394 323.093,-394"/>
<text text-anchor="middle" x="258" y="-378.8" font-family="Times,serif" font-size="14.00">Road users have a</text>
<text text-anchor="middle" x="258" y="-364.8" font-family="Times,serif" font-size="14.00">responsibility to make</text>
<text text-anchor="middle" x="258" y="-350.8" font-family="Times,serif" font-size="14.00">our roads safer by being</text>
<text text-anchor="middle" x="258" y="-336.8" font-family="Times,serif" font-size="14.00">more vigilant.</text>
</g>
<!-- fbaa9b79&#45;0965&#45;45a1&#45;9fd4&#45;60701c2102cf&#45;&gt;5760a93a&#45;55e7&#45;447c&#45;a245&#45;7f8d7e7e4434 -->
<g id="edge5" class="edge"><title>fbaa9b79&#45;0965&#45;45a1&#45;9fd4&#45;60701c2102cf&#45;&gt;5760a93a&#45;55e7&#45;447c&#45;a245&#45;7f8d7e7e4434</title>
<path fill="none" stroke="black" d="M258,-329.722C258,-321.419 258,-312.517 258,-304.436"/>
<polygon fill="black" stroke="black" points="261.5,-304.405 258,-294.405 254.5,-304.405 261.5,-304.405"/>
</g>
</g>
</svg>
